<mxfile host="65bd71144e">
    <diagram id="4JSt5DJm-soTtWE8x5Gy" name="Page-1">
        <mxGraphModel dx="81" dy="48" grid="0" gridSize="10" guides="1" tooltips="1" connect="1" arrows="1" fold="1" page="1" pageScale="1" pageWidth="1169" pageHeight="827" background="#000000" math="0" shadow="0">
            <root>
                <mxCell id="0"/>
                <mxCell id="1" parent="0"/>
                <mxCell id="20" value="" style="rounded=0;whiteSpace=wrap;html=1;fillStyle=solid;strokeColor=#ff7b00;fillColor=none;gradientColor=none;" vertex="1" parent="1">
                    <mxGeometry x="460" y="260" width="100" height="59" as="geometry"/>
                </mxCell>
                <mxCell id="15" value="" style="rounded=0;whiteSpace=wrap;html=1;fillStyle=solid;strokeColor=#ff7b00;fillColor=none;gradientColor=none;" vertex="1" parent="1">
                    <mxGeometry x="340" y="260" width="100" height="59" as="geometry"/>
                </mxCell>
                <mxCell id="3" value="index.php" style="rounded=1;whiteSpace=wrap;html=1;strokeWidth=2;fillWeight=4;hachureGap=8;hachureAngle=45;fillColor=#1ba1e2;sketch=1;fillStyle=solid;" vertex="1" parent="1">
                    <mxGeometry x="160" y="40" width="80" height="40" as="geometry"/>
                </mxCell>
                <mxCell id="4" value="game.php" style="rounded=1;whiteSpace=wrap;html=1;strokeWidth=2;fillWeight=4;hachureGap=8;hachureAngle=45;fillColor=#1ba1e2;sketch=1;fillStyle=solid;" vertex="1" parent="1">
                    <mxGeometry x="280" y="40" width="80" height="40" as="geometry"/>
                </mxCell>
                <mxCell id="7" value="" style="edgeStyle=none;html=1;" edge="1" parent="1">
                    <mxGeometry relative="1" as="geometry">
                        <mxPoint x="80" y="220.8571428571429" as="sourcePoint"/>
                        <mxPoint x="260" y="259" as="targetPoint"/>
                    </mxGeometry>
                </mxCell>
                <mxCell id="9" value="header.php" style="rounded=1;whiteSpace=wrap;html=1;strokeWidth=2;fillWeight=4;hachureGap=8;hachureAngle=45;fillColor=#1ba1e2;sketch=1;fillStyle=solid;" vertex="1" parent="1">
                    <mxGeometry x="21" y="268" width="80" height="40" as="geometry"/>
                </mxCell>
                <mxCell id="10" value="footer.php" style="rounded=1;whiteSpace=wrap;html=1;strokeWidth=2;fillWeight=4;hachureGap=8;hachureAngle=45;fillColor=#1ba1e2;sketch=1;fillStyle=solid;" vertex="1" parent="1">
                    <mxGeometry x="111" y="268" width="80" height="40" as="geometry"/>
                </mxCell>
                <mxCell id="28" value="" style="edgeStyle=none;html=1;fontSize=15;" edge="1" parent="1" source="11">
                    <mxGeometry relative="1" as="geometry">
                        <mxPoint x="390" y="200" as="targetPoint"/>
                    </mxGeometry>
                </mxCell>
                <mxCell id="11" value="style.css" style="rounded=1;whiteSpace=wrap;html=1;strokeWidth=2;fillWeight=4;hachureGap=8;hachureAngle=45;fillColor=#1ba1e2;sketch=1;fillStyle=solid;" vertex="1" parent="1">
                    <mxGeometry x="350" y="268" width="80" height="40" as="geometry"/>
                </mxCell>
                <mxCell id="12" value="game.js" style="rounded=1;whiteSpace=wrap;html=1;strokeWidth=2;fillWeight=4;hachureGap=8;hachureAngle=45;fillColor=#1ba1e2;sketch=1;fillStyle=solid;" vertex="1" parent="1">
                    <mxGeometry x="470" y="268" width="80" height="40" as="geometry"/>
                </mxCell>
                <mxCell id="19" value="" style="edgeStyle=none;html=1;" edge="1" parent="1" target="11">
                    <mxGeometry relative="1" as="geometry">
                        <mxPoint x="361.3761467889908" y="240" as="sourcePoint"/>
                    </mxGeometry>
                </mxCell>
                <mxCell id="22" value="" style="rounded=0;whiteSpace=wrap;html=1;fillStyle=solid;strokeColor=#ff7b00;fillColor=none;gradientColor=none;" vertex="1" parent="1">
                    <mxGeometry x="230" y="260" width="100" height="59" as="geometry"/>
                </mxCell>
                <mxCell id="23" value="images" style="rounded=1;whiteSpace=wrap;html=1;strokeWidth=2;fillWeight=4;hachureGap=8;hachureAngle=45;fillColor=#1ba1e2;sketch=1;fillStyle=solid;" vertex="1" parent="1">
                    <mxGeometry x="240" y="268" width="80" height="40" as="geometry"/>
                </mxCell>
                <mxCell id="32" value="" style="edgeStyle=elbowEdgeStyle;elbow=vertical;sourcePerimeterSpacing=0;targetPerimeterSpacing=0;startArrow=none;endArrow=none;rounded=0;curved=0;fontSize=15;fillColor=#e51400;strokeColor=#B20000;exitX=0.5;exitY=1;exitDx=0;exitDy=0;" edge="1" parent="1" source="3">
                    <mxGeometry relative="1" as="geometry">
                        <mxPoint x="200" y="100" as="sourcePoint"/>
                        <mxPoint x="260" y="100" as="targetPoint"/>
                        <Array as="points">
                            <mxPoint x="230" y="100"/>
                            <mxPoint x="260" y="130"/>
                            <mxPoint x="210" y="120"/>
                            <mxPoint x="270" y="150"/>
                        </Array>
                    </mxGeometry>
                </mxCell>
                <mxCell id="34" value="" style="edgeStyle=orthogonalEdgeStyle;sourcePerimeterSpacing=0;targetPerimeterSpacing=0;startArrow=none;endArrow=none;rounded=0;targetPortConstraint=eastwest;sourcePortConstraint=northsouth;curved=0;rounded=0;fontSize=15;fillColor=#e51400;strokeColor=#B20000;entryX=0.813;entryY=-0.003;entryDx=0;entryDy=0;entryPerimeter=0;exitX=0.5;exitY=1;exitDx=0;exitDy=0;" edge="1" parent="1" source="4">
                    <mxGeometry relative="1" as="geometry">
                        <mxPoint x="320" y="100" as="sourcePoint"/>
                        <mxPoint x="164.65699999999993" y="199.64" as="targetPoint"/>
                        <Array as="points">
                            <mxPoint x="320" y="100"/>
                            <mxPoint x="260" y="100"/>
                            <mxPoint x="260" y="160"/>
                            <mxPoint x="160" y="160"/>
                            <mxPoint x="160" y="200"/>
                        </Array>
                    </mxGeometry>
                </mxCell>
                <mxCell id="41" value="" style="edgeStyle=orthogonalEdgeStyle;sourcePerimeterSpacing=0;targetPerimeterSpacing=0;startArrow=none;endArrow=none;rounded=0;targetPortConstraint=eastwest;sourcePortConstraint=northsouth;curved=0;rounded=0;fontSize=15;fillColor=#e51400;strokeColor=#B20000;entryX=0.5;entryY=0;entryDx=0;entryDy=0;" edge="1" parent="1" target="42">
                    <mxGeometry relative="1" as="geometry">
                        <mxPoint x="300" y="100" as="sourcePoint"/>
                        <mxPoint x="470" y="170" as="targetPoint"/>
                        <Array as="points">
                            <mxPoint x="260" y="100"/>
                            <mxPoint x="260" y="160"/>
                            <mxPoint x="395" y="160"/>
                        </Array>
                    </mxGeometry>
                </mxCell>
                <mxCell id="42" value="ASSETS" style="label;whiteSpace=wrap;html=1;align=center;verticalAlign=bottom;spacingLeft=0;spacingBottom=4;imageAlign=center;imageVerticalAlign=top;image=img/clipart/Gear_128x128.png;fillStyle=solid;strokeColor=#ff7b00;fontSize=15;fontColor=#000000;fillColor=none;gradientColor=default;gradientDirection=south;" vertex="1" parent="1">
                    <mxGeometry x="220" y="180" width="350" height="180" as="geometry"/>
                </mxCell>
                <mxCell id="43" value="INCLUDES" style="label;whiteSpace=wrap;html=1;align=center;verticalAlign=bottom;spacingLeft=0;spacingBottom=4;imageAlign=center;imageVerticalAlign=top;image=img/clipart/Gear_128x128.png;fillStyle=solid;strokeColor=#ff7b00;fontSize=15;fontColor=#000000;fillColor=none;gradientColor=default;gradientDirection=south;" vertex="1" parent="1">
                    <mxGeometry x="10" y="200" width="190" height="160" as="geometry"/>
                </mxCell>
                <mxCell id="44" value="IMG" style="text;html=1;align=center;verticalAlign=middle;resizable=0;points=[];autosize=1;strokeColor=#C73500;fillColor=#fa6800;fontSize=15;fontColor=#000000;" vertex="1" parent="1">
                    <mxGeometry x="255" y="230" width="50" height="30" as="geometry"/>
                </mxCell>
                <mxCell id="45" value="CSS" style="text;html=1;align=center;verticalAlign=middle;resizable=0;points=[];autosize=1;strokeColor=#C73500;fillColor=#fa6800;fontSize=15;fontColor=#000000;" vertex="1" parent="1">
                    <mxGeometry x="365" y="230" width="50" height="30" as="geometry"/>
                </mxCell>
                <mxCell id="46" value="JS" style="text;html=1;align=center;verticalAlign=middle;resizable=0;points=[];autosize=1;strokeColor=#C73500;fillColor=#fa6800;fontSize=15;fontColor=#000000;" vertex="1" parent="1">
                    <mxGeometry x="490" y="230" width="40" height="30" as="geometry"/>
                </mxCell>
                <mxCell id="47" value="Accueil" style="text;html=1;align=center;verticalAlign=middle;resizable=0;points=[];autosize=1;fontSize=15;fillColor=#fa6800;fontColor=#000000;strokeColor=#C73500;" vertex="1" parent="1">
                    <mxGeometry x="130" y="80" width="70" height="30" as="geometry"/>
                </mxCell>
                <mxCell id="48" value="Jouer" style="text;html=1;align=center;verticalAlign=middle;resizable=0;points=[];autosize=1;fontSize=15;fillColor=#fa6800;fontColor=#000000;strokeColor=#C73500;" vertex="1" parent="1">
                    <mxGeometry x="320" y="80" width="60" height="30" as="geometry"/>
                </mxCell>
                <mxCell id="49" value="" style="shape=image;html=1;verticalLabelPosition=bottom;verticalAlign=top;imageAspect=1;aspect=fixed;image=img/clipart/Gear_128x128.png;fillStyle=solid;strokeColor=#ff7b00;fontSize=15;fontColor=#000000;fillColor=none;gradientColor=default;gradientDirection=south;" vertex="1" parent="1">
                    <mxGeometry x="235" y="114" width="52" height="61" as="geometry"/>
                </mxCell>
            </root>
        </mxGraphModel>
    </diagram>
</mxfile>